<svg fill="#FFFFFF" xmlns="http://www.w3.org/2000/svg" data-name="Layer 1" viewBox="0 0 128 128" x="0px" y="0px"><defs><style>.cls-1{fill:none;stroke:#FFFFFF;stroke-linecap:round;stroke-linejoin:round;stroke-width:4px;}</style></defs><title>Artboard 46</title><circle class="cls-1" cx="64" cy="64" r="62"></circle><path class="cls-1" d="M92,32c2.93-7.61-10-10-10-10S84.34,34.88,92,32Z"></path><path class="cls-1" d="M101.91,41.95c7.45-3.31,0-14.07,0-14.07S94.46,38.64,101.91,41.95Z"></path><path class="cls-1" d="M107.61,56.57c8.15-.16,5.46-13,5.46-13S102,50.63,107.61,56.57Z"></path><path class="cls-1" d="M107.41,70.19c6.79,4.52,11.88-7.54,11.88-7.54S106.21,62.12,107.41,70.19Z"></path><path class="cls-1" d="M102.74,83.09c5,6.43,13.66-3.39,13.66-3.39S104.16,75.06,102.74,83.09Z"></path><path class="cls-1" d="M93.63,95c3.41,7.4,14.07-.19,14.07-.19S96.84,87.5,93.63,95Z"></path><path class="cls-1" d="M36,32c-2.93-7.61,10-10,10-10S43.66,34.88,36,32Z"></path><path class="cls-1" d="M26.09,41.95c-7.45-3.31,0-14.07,0-14.07S33.54,38.64,26.09,41.95Z"></path><path class="cls-1" d="M20.39,56.57c-8.15-.16-5.46-13-5.46-13S26,50.63,20.39,56.57Z"></path><path class="cls-1" d="M20.59,70.19C13.81,74.7,8.71,62.65,8.71,62.65S21.79,62.12,20.59,70.19Z"></path><path class="cls-1" d="M25.26,83.09c-5,6.43-13.66-3.39-13.66-3.39S23.84,75.06,25.26,83.09Z"></path><path class="cls-1" d="M34.37,95C31,102.4,20.3,94.8,20.3,94.8S31.16,87.5,34.37,95Z"></path><path class="cls-1" d="M92,32c9.1,7.44,14.87,19.63,14.87,32.3A40,40,0,0,1,78,103c-7,2-17,4-20,12"></path><path class="cls-1" d="M36,32c-9.1,7.44-14.87,19.63-14.87,32.3A40,40,0,0,0,50,103c7,2,17,4,20,12"></path><path class="cls-1" d="M32,61.17a38.12,38.12,0,0,0,14.41-9c3.17-3.07,4.09-4.42,7-6.52,6.88-4.91,18.33-6.64,23.66-1.53,4,3.8,3.46,10.27,2.78,10.55s-2-5.9-6-6.71a5.81,5.81,0,0,0-5.17,1.73c-3.51,3.92-.32,14.75,7,19.95,8.39,6,19.15,2.32,20.28,1.92"></path><path class="cls-1" d="M46,83.11h0a6,6,0,0,0,6,6h0a6,6,0,0,0,6-6h0a6,6,0,0,0,6,6h0a6,6,0,0,0,6-6h0a6,6,0,0,0,6,6h0a6,6,0,0,0,6-6h0"></path></svg>