<svg fill="#0088B7" xmlns="http://www.w3.org/2000/svg" viewBox="0 0 64 64" x="0px" y="0px"><title>video rec record</title><g data-name="Layer 2"><path d="M59.48,9.55a2.6,2.6,0,0,0-1.13.27l-8.87,4.44A6.25,6.25,0,0,0,47,16.5V12a5,5,0,0,0-5-5H19V4.5a2.5,2.5,0,0,0-5,0V7H13a5,5,0,0,0-4.65,3.2,2.69,2.69,0,0,0-1-.2H4.67A2.66,2.66,0,0,0,2,12.67v3.66A2.66,2.66,0,0,0,4.67,19H7.33A2.85,2.85,0,0,0,8,18.91V34a5,5,0,0,0,5,5H23.41L13.1,60.57a1,1,0,0,0,.47,1.33A.94.94,0,0,0,14,62a1,1,0,0,0,.9-.57l9.1-19V58a1,1,0,0,0,2,0V42.41l9.1,19A1,1,0,0,0,36,62a.94.94,0,0,0,.43-.1,1,1,0,0,0,.47-1.33L26.59,39H32A15,15,0,0,0,47,24v-.72a6.29,6.29,0,0,0,2.77,2.37l8.7,3.81a2.65,2.65,0,0,0,1,.21A2.52,2.52,0,0,0,62,27.15V12.08A2.53,2.53,0,0,0,59.48,9.55ZM16,6.8c0-.14,0-.25,0-.3v-2a.5.5,0,0,1,1,0v2s0,.16,0,.3V7H16ZM10,21a3,3,0,0,1,3-3H27a3,3,0,0,1,3,3v8a3,3,0,0,1-3,3H13a3,3,0,0,1-3-3ZM7.33,17H4.67A.67.67,0,0,1,4,16.33V12.67A.67.67,0,0,1,4.67,12H7.33a.67.67,0,0,1,.67.67v3.66A.67.67,0,0,1,7.33,17ZM45,24A13,13,0,0,1,32,37H13a3,3,0,0,1-3-3V33a5,5,0,0,0,3,1H27a5,5,0,0,0,5-5V21a5,5,0,0,0-5-5H13a5,5,0,0,0-3,1V12a3,3,0,0,1,3-3H42a3,3,0,0,1,3,3Zm15,3.15a.53.53,0,0,1-.52.52.54.54,0,0,1-.21-.05l-8.7-3.8a4.29,4.29,0,0,1-.2-7.77l8.88-4.44a.49.49,0,0,1,.23-.06.53.53,0,0,1,.52.53Z"></path><path d="M39,11a4,4,0,1,0,4,4A4,4,0,0,0,39,11Zm0,6a2,2,0,1,1,2-2A2,2,0,0,1,39,17Z"></path></g></svg>